<svg id="visual" viewBox="0 0 900 300" width="900" height="300" xmlns="http://www.w3.org/2000/svg" xmlns:xlink="http://www.w3.org/1999/xlink" version="1.1"><path d="M0 217L21.5 215.5C43 214 86 211 128.8 210.3C171.7 209.7 214.3 211.3 257.2 208.2C300 205 343 197 385.8 197.8C428.7 198.7 471.3 208.3 514.2 211C557 213.7 600 209.3 642.8 202.7C685.7 196 728.3 187 771.2 182.8C814 178.7 857 179.3 878.5 179.7L900 180L900 301L878.5 301C857 301 814 301 771.2 301C728.3 301 685.7 301 642.8 301C600 301 557 301 514.2 301C471.3 301 428.7 301 385.8 301C343 301 300 301 257.2 301C214.3 301 171.7 301 128.8 301C86 301 43 301 21.5 301L0 301Z" fill="#d19e71"></path><path d="M0 199L21.5 199.3C43 199.7 86 200.3 128.8 204.2C171.7 208 214.3 215 257.2 220C300 225 343 228 385.8 226.8C428.7 225.7 471.3 220.3 514.2 220.8C557 221.3 600 227.7 642.8 230.5C685.7 233.3 728.3 232.7 771.2 228C814 223.3 857 214.7 878.5 210.3L900 206L900 301L878.5 301C857 301 814 301 771.2 301C728.3 301 685.7 301 642.8 301C600 301 557 301 514.2 301C471.3 301 428.7 301 385.8 301C343 301 300 301 257.2 301C214.3 301 171.7 301 128.8 301C86 301 43 301 21.5 301L0 301Z" fill="#dcb286"></path><path d="M0 254L21.5 251.5C43 249 86 244 128.8 239.3C171.7 234.7 214.3 230.3 257.2 229.5C300 228.7 343 231.3 385.8 232C428.7 232.7 471.3 231.3 514.2 229.5C557 227.7 600 225.3 642.8 228.2C685.7 231 728.3 239 771.2 242.7C814 246.3 857 245.7 878.5 245.3L900 245L900 301L878.5 301C857 301 814 301 771.2 301C728.3 301 685.7 301 642.8 301C600 301 557 301 514.2 301C471.3 301 428.7 301 385.8 301C343 301 300 301 257.2 301C214.3 301 171.7 301 128.8 301C86 301 43 301 21.5 301L0 301Z" fill="#e7c69c"></path><path d="M0 240L21.5 240C43 240 86 240 128.8 244.5C171.7 249 214.3 258 257.2 262.8C300 267.7 343 268.3 385.8 266.5C428.7 264.7 471.3 260.3 514.2 258C557 255.7 600 255.3 642.8 257.8C685.7 260.3 728.3 265.7 771.2 267.7C814 269.7 857 268.3 878.5 267.7L900 267L900 301L878.5 301C857 301 814 301 771.2 301C728.3 301 685.7 301 642.8 301C600 301 557 301 514.2 301C471.3 301 428.7 301 385.8 301C343 301 300 301 257.2 301C214.3 301 171.7 301 128.8 301C86 301 43 301 21.5 301L0 301Z" fill="#f3dab3"></path><path d="M0 266L21.5 268.7C43 271.3 86 276.7 128.8 279.7C171.7 282.7 214.3 283.3 257.2 283.5C300 283.7 343 283.3 385.8 283.5C428.7 283.7 471.3 284.3 514.2 281C557 277.7 600 270.3 642.8 269.2C685.7 268 728.3 273 771.2 274.8C814 276.7 857 275.3 878.5 274.7L900 274L900 301L878.5 301C857 301 814 301 771.2 301C728.3 301 685.7 301 642.8 301C600 301 557 301 514.2 301C471.3 301 428.7 301 385.8 301C343 301 300 301 257.2 301C214.3 301 171.7 301 128.8 301C86 301 43 301 21.5 301L0 301Z" fill="#ffedcb"></path></svg>