<svg width="180" height="259" viewBox="0 0 180 259" fill="none" xmlns="http://www.w3.org/2000/svg">
<path d="M178.557 129.247C178.557 164.849 168.56 197.058 152.423 220.354C136.285 243.651 114.04 257.994 89.5283 257.994C65.016 257.994 42.7712 243.651 26.6332 220.354C10.4967 197.058 0.5 164.849 0.5 129.247C0.5 93.6454 10.4967 61.4358 26.6332 38.1403C42.7712 14.8429 65.016 0.5 89.5283 0.5C114.04 0.5 136.285 14.8429 152.423 38.1403C168.56 61.4358 178.557 93.6454 178.557 129.247Z" fill="white" stroke="black"/>
<ellipse cx="88.5" cy="139.5" rx="71.5" ry="95.5" fill="#E4B48A"/>
<ellipse cx="89" cy="138.5" rx="67" ry="89.5" fill="#9B7451"/>
<ellipse cx="89" cy="135.5" rx="62" ry="83.5" fill="#FFAE66"/>
</svg>
