<svg width="35" height="35" viewBox="0 0 35 35" fill="none" xmlns="http://www.w3.org/2000/svg">
<mask id="mask0_225_857" style="mask-type:alpha" maskUnits="userSpaceOnUse" x="0" y="0" width="35" height="35">
<rect width="35" height="35" fill="#D9D9D9"/>
</mask>
<g mask="url(#mask0_225_857)">
<path d="M16.0416 24.7916H18.9583V16.0416H16.0416V24.7916ZM17.5 13.125C17.9132 13.125 18.2595 12.9852 18.539 12.7057C18.8185 12.4262 18.9583 12.0798 18.9583 11.6666C18.9583 11.2534 18.8185 10.9071 18.539 10.6276C18.2595 10.348 17.9132 10.2083 17.5 10.2083C17.0868 10.2083 16.7404 10.348 16.4609 10.6276C16.1814 10.9071 16.0416 11.2534 16.0416 11.6666C16.0416 12.0798 16.1814 12.4262 16.4609 12.7057C16.7404 12.9852 17.0868 13.125 17.5 13.125ZM17.5 32.0833C15.4826 32.0833 13.5868 31.7005 11.8125 30.9349C10.0382 30.1692 8.49475 29.1302 7.18225 27.8177C5.86975 26.5052 4.83069 24.9618 4.06506 23.1875C3.29944 21.4132 2.91663 19.5173 2.91663 17.5C2.91663 15.4826 3.29944 13.5868 4.06506 11.8125C4.83069 10.0382 5.86975 8.49475 7.18225 7.18225C8.49475 5.86975 10.0382 4.83069 11.8125 4.06506C13.5868 3.29944 15.4826 2.91663 17.5 2.91663C19.5173 2.91663 21.4132 3.29944 23.1875 4.06506C24.9618 4.83069 26.5052 5.86975 27.8177 7.18225C29.1302 8.49475 30.1692 10.0382 30.9349 11.8125C31.7005 13.5868 32.0833 15.4826 32.0833 17.5C32.0833 19.5173 31.7005 21.4132 30.9349 23.1875C30.1692 24.9618 29.1302 26.5052 27.8177 27.8177C26.5052 29.1302 24.9618 30.1692 23.1875 30.9349C21.4132 31.7005 19.5173 32.0833 17.5 32.0833ZM17.5 29.1666C20.7569 29.1666 23.5156 28.0364 25.776 25.776C28.0364 23.5156 29.1666 20.7569 29.1666 17.5C29.1666 14.243 28.0364 11.4843 25.776 9.22392C23.5156 6.9635 20.7569 5.83329 17.5 5.83329C14.243 5.83329 11.4843 6.9635 9.22392 9.22392C6.9635 11.4843 5.83329 14.243 5.83329 17.5C5.83329 20.7569 6.9635 23.5156 9.22392 25.776C11.4843 28.0364 14.243 29.1666 17.5 29.1666Z" fill="#FFC34E"/>
</g>
</svg>
