<svg id="visual" viewBox="0 0 900 300" width="900" height="300" xmlns="http://www.w3.org/2000/svg" xmlns:xlink="http://www.w3.org/1999/xlink" version="1.1"><path d="M0 81L13.7 73.7C27.3 66.3 54.7 51.7 82 41.3C109.3 31 136.7 25 163.8 24.8C191 24.7 218 30.3 245.2 37C272.3 43.7 299.7 51.3 327 56C354.3 60.7 381.7 62.3 409 59.7C436.3 57 463.7 50 491 45.3C518.3 40.7 545.7 38.3 573 57.5C600.3 76.7 627.7 117.3 654.8 120.3C682 123.3 709 88.7 736.2 66.8C763.3 45 790.7 36 818 41.8C845.3 47.7 872.7 68.3 886.3 78.7L900 89L900 301L886.3 301C872.7 301 845.3 301 818 301C790.7 301 763.3 301 736.2 301C709 301 682 301 654.8 301C627.7 301 600.3 301 573 301C545.7 301 518.3 301 491 301C463.7 301 436.3 301 409 301C381.7 301 354.3 301 327 301C299.7 301 272.3 301 245.2 301C218 301 191 301 163.8 301C136.7 301 109.3 301 82 301C54.7 301 27.3 301 13.7 301L0 301Z" fill="#87ceeb"></path><path d="M0 94L13.7 106.3C27.3 118.7 54.7 143.3 82 148.5C109.3 153.7 136.7 139.3 163.8 133.5C191 127.7 218 130.3 245.2 124.7C272.3 119 299.7 105 327 102.5C354.3 100 381.7 109 409 118.8C436.3 128.7 463.7 139.3 491 128.3C518.3 117.3 545.7 84.7 573 72.2C600.3 59.7 627.7 67.3 654.8 71.8C682 76.3 709 77.7 736.2 94.5C763.3 111.3 790.7 143.7 818 158C845.3 172.3 872.7 168.7 886.3 166.8L900 165L900 301L886.3 301C872.7 301 845.3 301 818 301C790.7 301 763.3 301 736.2 301C709 301 682 301 654.8 301C627.7 301 600.3 301 573 301C545.7 301 518.3 301 491 301C463.7 301 436.3 301 409 301C381.7 301 354.3 301 327 301C299.7 301 272.3 301 245.2 301C218 301 191 301 163.8 301C136.7 301 109.3 301 82 301C54.7 301 27.3 301 13.7 301L0 301Z" fill="#7dc9e8"></path><path d="M0 89L13.7 93.2C27.3 97.3 54.7 105.7 82 116C109.3 126.3 136.7 138.7 163.8 141.5C191 144.3 218 137.7 245.2 136C272.3 134.3 299.7 137.7 327 145.8C354.3 154 381.7 167 409 172.3C436.3 177.7 463.7 175.3 491 169.3C518.3 163.3 545.7 153.7 573 154.8C600.3 156 627.7 168 654.8 163.5C682 159 709 138 736.2 133.2C763.3 128.3 790.7 139.7 818 137.5C845.3 135.3 872.7 119.7 886.3 111.8L900 104L900 301L886.3 301C872.7 301 845.3 301 818 301C790.7 301 763.3 301 736.2 301C709 301 682 301 654.8 301C627.7 301 600.3 301 573 301C545.7 301 518.3 301 491 301C463.7 301 436.3 301 409 301C381.7 301 354.3 301 327 301C299.7 301 272.3 301 245.2 301C218 301 191 301 163.8 301C136.7 301 109.3 301 82 301C54.7 301 27.3 301 13.7 301L0 301Z" fill="#74c4e5"></path><path d="M0 193L13.7 191.2C27.3 189.3 54.7 185.7 82 180.7C109.3 175.7 136.7 169.3 163.8 161.7C191 154 218 145 245.2 152.3C272.3 159.7 299.7 183.3 327 195.3C354.3 207.3 381.7 207.7 409 202.5C436.3 197.3 463.7 186.7 491 172.5C518.3 158.3 545.7 140.7 573 137.8C600.3 135 627.7 147 654.8 150.3C682 153.7 709 148.3 736.2 145.8C763.3 143.3 790.7 143.7 818 149.5C845.3 155.3 872.7 166.7 886.3 172.3L900 178L900 301L886.3 301C872.7 301 845.3 301 818 301C790.7 301 763.3 301 736.2 301C709 301 682 301 654.8 301C627.7 301 600.3 301 573 301C545.7 301 518.3 301 491 301C463.7 301 436.3 301 409 301C381.7 301 354.3 301 327 301C299.7 301 272.3 301 245.2 301C218 301 191 301 163.8 301C136.7 301 109.3 301 82 301C54.7 301 27.3 301 13.7 301L0 301Z" fill="#6abee3"></path><path d="M0 146L13.7 151.5C27.3 157 54.7 168 82 167.8C109.3 167.7 136.7 156.3 163.8 149C191 141.7 218 138.3 245.2 142.5C272.3 146.7 299.7 158.3 327 166.8C354.3 175.3 381.7 180.7 409 176.8C436.3 173 463.7 160 491 165.3C518.3 170.7 545.7 194.3 573 203C600.3 211.7 627.7 205.3 654.8 203.3C682 201.3 709 203.7 736.2 193.8C763.3 184 790.7 162 818 154C845.3 146 872.7 152 886.3 155L900 158L900 301L886.3 301C872.7 301 845.3 301 818 301C790.7 301 763.3 301 736.2 301C709 301 682 301 654.8 301C627.7 301 600.3 301 573 301C545.7 301 518.3 301 491 301C463.7 301 436.3 301 409 301C381.7 301 354.3 301 327 301C299.7 301 272.3 301 245.2 301C218 301 191 301 163.8 301C136.7 301 109.3 301 82 301C54.7 301 27.3 301 13.7 301L0 301Z" fill="#5fb9e0"></path><path d="M0 209L13.7 210C27.3 211 54.7 213 82 204.8C109.3 196.7 136.7 178.3 163.8 178.2C191 178 218 196 245.2 207.2C272.3 218.3 299.7 222.7 327 221.8C354.3 221 381.7 215 409 208.3C436.3 201.7 463.7 194.3 491 192.2C518.3 190 545.7 193 573 192.3C600.3 191.7 627.7 187.3 654.8 185C682 182.7 709 182.3 736.2 182.3C763.3 182.3 790.7 182.7 818 191.5C845.3 200.3 872.7 217.7 886.3 226.3L900 235L900 301L886.3 301C872.7 301 845.3 301 818 301C790.7 301 763.3 301 736.2 301C709 301 682 301 654.8 301C627.7 301 600.3 301 573 301C545.7 301 518.3 301 491 301C463.7 301 436.3 301 409 301C381.7 301 354.3 301 327 301C299.7 301 272.3 301 245.2 301C218 301 191 301 163.8 301C136.7 301 109.3 301 82 301C54.7 301 27.3 301 13.7 301L0 301Z" fill="#54b4dd"></path><path d="M0 204L13.7 207.2C27.3 210.3 54.7 216.7 82 225.8C109.3 235 136.7 247 163.8 244.5C191 242 218 225 245.2 217.2C272.3 209.3 299.7 210.7 327 217.8C354.3 225 381.7 238 409 245C436.3 252 463.7 253 491 247C518.3 241 545.7 228 573 225.8C600.3 223.7 627.7 232.3 654.8 235.3C682 238.3 709 235.7 736.2 228.2C763.3 220.7 790.7 208.3 818 204C845.3 199.7 872.7 203.3 886.3 205.2L900 207L900 301L886.3 301C872.7 301 845.3 301 818 301C790.7 301 763.3 301 736.2 301C709 301 682 301 654.8 301C627.7 301 600.3 301 573 301C545.7 301 518.3 301 491 301C463.7 301 436.3 301 409 301C381.7 301 354.3 301 327 301C299.7 301 272.3 301 245.2 301C218 301 191 301 163.8 301C136.7 301 109.3 301 82 301C54.7 301 27.3 301 13.7 301L0 301Z" fill="#48afdb"></path><path d="M0 221L13.7 227.3C27.3 233.7 54.7 246.3 82 255C109.3 263.7 136.7 268.3 163.8 269C191 269.7 218 266.3 245.2 257.3C272.3 248.3 299.7 233.7 327 235.8C354.3 238 381.7 257 409 266C436.3 275 463.7 274 491 268.8C518.3 263.7 545.7 254.3 573 246.5C600.3 238.7 627.7 232.3 654.8 233.2C682 234 709 242 736.2 248.5C763.3 255 790.7 260 818 264.3C845.3 268.7 872.7 272.3 886.3 274.2L900 276L900 301L886.3 301C872.7 301 845.3 301 818 301C790.7 301 763.3 301 736.2 301C709 301 682 301 654.8 301C627.7 301 600.3 301 573 301C545.7 301 518.3 301 491 301C463.7 301 436.3 301 409 301C381.7 301 354.3 301 327 301C299.7 301 272.3 301 245.2 301C218 301 191 301 163.8 301C136.7 301 109.3 301 82 301C54.7 301 27.3 301 13.7 301L0 301Z" fill="#3baad8"></path><path d="M0 255L13.7 260.7C27.3 266.3 54.7 277.7 82 282.5C109.3 287.3 136.7 285.7 163.8 286C191 286.3 218 288.7 245.2 288.8C272.3 289 299.7 287 327 284.8C354.3 282.7 381.7 280.3 409 281.2C436.3 282 463.7 286 491 284.8C518.3 283.7 545.7 277.3 573 270.8C600.3 264.3 627.7 257.7 654.8 257.3C682 257 709 263 736.2 267C763.3 271 790.7 273 818 272.7C845.3 272.3 872.7 269.7 886.3 268.3L900 267L900 301L886.3 301C872.7 301 845.3 301 818 301C790.7 301 763.3 301 736.2 301C709 301 682 301 654.8 301C627.7 301 600.3 301 573 301C545.7 301 518.3 301 491 301C463.7 301 436.3 301 409 301C381.7 301 354.3 301 327 301C299.7 301 272.3 301 245.2 301C218 301 191 301 163.8 301C136.7 301 109.3 301 82 301C54.7 301 27.3 301 13.7 301L0 301Z" fill="#2aa5d6"></path></svg>