<svg width="180" height="259" viewBox="0 0 180 259" fill="none" xmlns="http://www.w3.org/2000/svg">
<path d="M178.557 129.247C178.557 164.849 168.56 197.058 152.423 220.354C136.285 243.651 114.04 257.994 89.5283 257.994C65.016 257.994 42.7712 243.651 26.6332 220.354C10.4967 197.058 0.5 164.849 0.5 129.247C0.5 93.6454 10.4967 61.4358 26.6332 38.1403C42.7712 14.8429 65.016 0.5 89.5283 0.5C114.04 0.5 136.285 14.8429 152.423 38.1403C168.56 61.4358 178.557 93.6454 178.557 129.247Z" fill="white" stroke="black"/>
<ellipse cx="89.5281" cy="138.212" rx="64.1502" ry="85.9157" fill="#FE8215"/>
<path d="M148 172.5H32V190.5C32 191.5 41 235 49 220C55.4 208 54.3333 212.5 55 219C56.5 231 59 255.5 70 237C76.2854 226.429 78 250 84.5 242C92.0737 232.679 92.5 221 99.5 237C105.1 249.8 110.667 241 112.5 226.5C128.1 244.9 137.5 207.833 139.5 204C142.109 199 147.5 192.333 148 172.5Z" fill="#FE8215"/>
</svg>
