<svg id="visual" viewBox="0 0 900 300" width="900" height="300" xmlns="http://www.w3.org/2000/svg" xmlns:xlink="http://www.w3.org/1999/xlink" version="1.1"><path d="M0 118L18.8 113.2C37.7 108.3 75.3 98.7 112.8 111.5C150.3 124.3 187.7 159.7 225.2 164.5C262.7 169.3 300.3 143.7 337.8 139.5C375.3 135.3 412.7 152.7 450.2 159.3C487.7 166 525.3 162 562.8 154.2C600.3 146.3 637.7 134.7 675.2 123.8C712.7 113 750.3 103 787.8 99.5C825.3 96 862.7 99 881.3 100.5L900 102L900 0L881.3 0C862.7 0 825.3 0 787.8 0C750.3 0 712.7 0 675.2 0C637.7 0 600.3 0 562.8 0C525.3 0 487.7 0 450.2 0C412.7 0 375.3 0 337.8 0C300.3 0 262.7 0 225.2 0C187.7 0 150.3 0 112.8 0C75.3 0 37.7 0 18.8 0L0 0Z" fill="#2aa5d6" stroke-linecap="round" stroke-linejoin="miter"></path></svg>